<?xml version="1.0" encoding="UTF-8" standalone="no"?>
<!-- Svg Vector Icons : http://www.onlinewebfonts.com/icon -->

<svg
   xmlns:dc="http://purl.org/dc/elements/1.1/"
   xmlns:cc="http://creativecommons.org/ns#"
   xmlns:rdf="http://www.w3.org/1999/02/22-rdf-syntax-ns#"
   xmlns:svg="http://www.w3.org/2000/svg"
   xmlns="http://www.w3.org/2000/svg"
   xmlns:sodipodi="http://sodipodi.sourceforge.net/DTD/sodipodi-0.dtd"
   xmlns:inkscape="http://www.inkscape.org/namespaces/inkscape"
   version="1.1"
   x="0px"
   y="0px"
   viewBox="0 0 1 1"
   enable-background="new 0 0 1000 1000"
   xml:space="preserve"
   id="svg2"
   inkscape:version="0.91 r13725"
   sodipodi:docname="resize.svg"
   width="1"
   height="1"><defs
     id="defs16" /><sodipodi:namedview
     pagecolor="#ffffff"
     bordercolor="#666666"
     borderopacity="1"
     objecttolerance="10"
     gridtolerance="10"
     guidetolerance="10"
     inkscape:pageopacity="0"
     inkscape:pageshadow="2"
     inkscape:window-width="1440"
     inkscape:window-height="790"
     id="namedview14"
     showgrid="false"
     inkscape:zoom="170.88225"
     inkscape:cx="0.63670575"
     inkscape:cy="0.19541016"
     inkscape:window-x="0"
     inkscape:window-y="1"
     inkscape:window-maximized="1"
     inkscape:current-layer="svg2" /><metadata
     id="metadata4"> Svg Vector Icons : http://www.onlinewebfonts.com/icon <rdf:RDF><cc:Work
     rdf:about=""><dc:format>image/svg+xml</dc:format><dc:type
       rdf:resource="http://purl.org/dc/dcmitype/StillImage" /><dc:title></dc:title></cc:Work></rdf:RDF></metadata><g
     id="g6"
     transform="matrix(-0.00102041,0,0,0.00102041,1.0102059,-0.0102059)"><g
       transform="matrix(0.1,0,0,-0.1,0,512)"
       id="g8"><path
         d="M 6588.7,4302.2 7306.5,3584.4 6152.3,2430.3 5000,1278 5578,698 6158,120 7310.3,1272.3 8464.5,2426.5 9182.3,1708.7 9900,990.9 l 0,2015.5 0,2013.6 -2013.6,0 -2015.5,0 717.8,-717.8 z"
         id="path10"
         inkscape:connector-curvature="0" /><path
         d="m 2687.8,-1032.3 -1152.3,-1154.1 -717.8,717.8 -717.7,717.7 0,-2015.5 0,-2013.6 2015.5,0 2013.6,1.9 -1292,1286.3 c -712,708.2 -1039.3,1033.6 -727.3,727.3 310.1,-308.2 574.2,-560.8 583.8,-560.8 11.5,0 534,514.9 1163.7,1144.6 L 5000,-1038 4420,-458 3842,120 2687.8,-1032.3 Z"
         id="path12"
         inkscape:connector-curvature="0" /></g></g></svg>