<?xml version="1.0" encoding="UTF-8" standalone="no"?>
<!-- Svg Vector Icons : http://www.onlinewebfonts.com/icon -->

<svg
   xmlns:dc="http://purl.org/dc/elements/1.1/"
   xmlns:cc="http://creativecommons.org/ns#"
   xmlns:rdf="http://www.w3.org/1999/02/22-rdf-syntax-ns#"
   xmlns:svg="http://www.w3.org/2000/svg"
   xmlns="http://www.w3.org/2000/svg"
   xmlns:sodipodi="http://sodipodi.sourceforge.net/DTD/sodipodi-0.dtd"
   xmlns:inkscape="http://www.inkscape.org/namespaces/inkscape"
   version="1.1"
   x="0px"
   y="0px"
   viewBox="0 0 1 1"
   enable-background="new 0 0 1000 1000"
   xml:space="preserve"
   id="svg2"
   inkscape:version="0.91 r13725"
   sodipodi:docname="rotate.svg"
   width="1"
   height="1"><defs
     id="defs18" /><sodipodi:namedview
     pagecolor="#ffffff"
     bordercolor="#666666"
     borderopacity="1"
     objecttolerance="10"
     gridtolerance="10"
     guidetolerance="10"
     inkscape:pageopacity="0"
     inkscape:pageshadow="2"
     inkscape:window-width="1191"
     inkscape:window-height="734"
     id="namedview16"
     showgrid="false"
     inkscape:zoom="256"
     inkscape:cx="0.55755804"
     inkscape:cy="0.77500185"
     inkscape:window-x="0"
     inkscape:window-y="0"
     inkscape:window-maximized="0"
     inkscape:current-layer="svg2" /><metadata
     id="metadata4"> Svg Vector Icons : http://www.onlinewebfonts.com/icon <rdf:RDF><cc:Work
     rdf:about=""><dc:format>image/svg+xml</dc:format><dc:type
       rdf:resource="http://purl.org/dc/dcmitype/StillImage" /><dc:title></dc:title></cc:Work></rdf:RDF></metadata><path
     style="fill:#000000"
     d="m 0.43015263,0.00333335 c 0.0251914,0.00134861 0.21971606,0.05548099 0.28567995,0.07949916 0.0572549,0.02084709 0.0762881,0.07732676 0.0391403,0.11614544 -0.0262252,0.0274048 -0.0444069,0.0296577 -0.10454683,0.0129558 -0.0301492,-0.008373 -0.0548017,-0.0135789 -0.0547834,-0.0115684 1.824e-5,0.00201 0.0122537,0.04537 0.0271898,0.0963543 0.0438171,0.14957042 0.0393558,0.31008679 -0.0126486,0.45508927 -0.009678,0.0269846 -0.0156445,0.0512054 -0.0132591,0.0538239 0.002385,0.002619 0.024607,2.049e-5 0.0493813,-0.005774 0.0247743,-0.005794 0.0557429,-0.007977 0.0688193,-0.00485 0.0459253,0.0109804 0.0636811,0.0765538 0.0302022,0.11153862 -0.0161596,0.0168864 -0.25907519,0.0904447 -0.31974658,0.0968238 -0.048154,0.00506 -0.0627211,-0.0208172 -0.10189274,-0.18102389 -0.0493212,-0.20171778 -0.0463086,-0.24411519 0.0178582,-0.25132187 0.0450194,-0.005056 0.059155,0.012278 0.0846107,0.10375575 0.0126605,0.0454971 0.0264565,0.0827754 0.0306578,0.0828405 0.004201,6.51e-5 0.0197985,-0.0373044 0.0346604,-0.0830433 0.0305846,-0.0941267 0.036753,-0.18744656 0.0186659,-0.28239502 -0.0120733,-0.063379 -0.0373977,-0.13355564 -0.0482563,-0.13372381 -0.003691,-5.706e-5 -0.0155962,0.0313363 -0.0264571,0.0697631 -0.0111189,0.0393398 -0.0274421,0.0779083 -0.0373586,0.0882709 -0.0340878,0.0356207 -0.10198905,0.0136802 -0.10636094,-0.0343681 -0.002188,-0.024048 0.0115381,-0.0894147 0.0472545,-0.22503526 0.0340094,-0.12913899 0.0499206,-0.15596705 0.0911899,-0.15375775 z"
     id="path3350"
     inkscape:connector-curvature="0" /></svg>